<?xml version="1.0" encoding="UTF-8"?>
<svg id="Layer_1" data-name="Layer 1" xmlns="http://www.w3.org/2000/svg" viewBox="0 0 339.13 82.52">
  <defs>
    <style>
      .cls-1 {
        fill: #fff;
      }

      .cls-1, .cls-2 {
        stroke-width: 0px;
      }

      .cls-2 {
        fill: #7f54b3;
      }
    </style>
  </defs>
  <rect class="cls-2" width="222.35" height="61.95" rx="6.38" ry="6.38"/>
  <g>
    <path class="cls-1" d="m28.38,20.21h-6.33v21.29h-5.19v-21.29h-6.22v-4.31h17.74v4.31Z"/>
    <path class="cls-1" d="m35.96,24.15c1.08-1.35,2.4-2.02,3.97-2.02,1.73,0,3.05.61,3.96,1.83s1.36,3.04,1.37,5.45v12.09h-4.99v-12.04c0-1.11-.17-1.92-.52-2.42s-.91-.75-1.68-.75c-.9,0-1.61.42-2.11,1.25v13.96h-4.97V14.5h4.97v9.65Z"/>
    <path class="cls-1" d="m57.86,41.5c-.14-.29-.28-.79-.42-1.48-.89,1.22-2.1,1.83-3.62,1.83s-2.92-.53-3.96-1.58-1.57-2.42-1.57-4.1c0-1.99.64-3.53,1.91-4.62s3.1-1.65,5.49-1.67h1.51v-1.53c0-.86-.15-1.46-.44-1.81s-.72-.53-1.28-.53c-1.24,0-1.86.73-1.86,2.18h-4.97c0-1.76.66-3.21,1.98-4.35s2.99-1.71,5-1.71,3.7.54,4.84,1.63,1.71,2.63,1.71,4.65v8.95c.02,1.64.26,2.92.7,3.85v.3h-5.01Zm-2.94-3.55c.55,0,1.02-.11,1.41-.33s.67-.49.86-.79v-3.96h-1.2c-.84,0-1.51.27-2,.81s-.73,1.26-.73,2.16c0,1.41.55,2.11,1.65,2.11Z"/>
    <path class="cls-1" d="m79.62,33.15l1.71-10.67h4.76l-3.94,19.02h-4.13l-2.69-11-2.69,11h-4.15l-3.94-19.02h4.78l1.69,10.69,2.53-10.69h3.53l2.53,10.67Z"/>
    <path class="cls-1" d="m97.59,41.5c-.14-.29-.28-.79-.42-1.48-.89,1.22-2.1,1.83-3.62,1.83s-2.92-.53-3.96-1.58-1.57-2.42-1.57-4.1c0-1.99.64-3.53,1.91-4.62s3.1-1.65,5.49-1.67h1.51v-1.53c0-.86-.15-1.46-.44-1.81s-.72-.53-1.28-.53c-1.24,0-1.86.73-1.86,2.18h-4.97c0-1.76.66-3.21,1.98-4.35s2.99-1.71,5-1.71,3.7.54,4.84,1.63,1.71,2.63,1.71,4.65v8.95c.02,1.64.26,2.92.7,3.85v.3h-5.01Zm-2.94-3.55c.55,0,1.02-.11,1.41-.33s.67-.49.86-.79v-3.96h-1.2c-.84,0-1.51.27-2,.81s-.73,1.26-.73,2.16c0,1.41.55,2.11,1.65,2.11Z"/>
    <path class="cls-1" d="m110.05,22.48l.14,1.88c1.12-1.49,2.6-2.23,4.41-2.23,3.27,0,4.95,2.29,5.04,6.87v12.5h-4.99v-12.13c0-1.08-.16-1.86-.48-2.35s-.89-.73-1.7-.73c-.9,0-1.61.46-2.11,1.39v13.82h-4.99v-19.02h4.68Z"/>
    <path class="cls-1" d="m123.22,17.56c0-.77.25-1.41.74-1.9s1.15-.74,1.97-.74,1.48.25,1.97.74.74,1.12.74,1.9-.24,1.39-.73,1.9-1.15.76-1.98.76-1.49-.25-1.98-.76-.73-1.14-.73-1.9Zm5.22,23.94h-4.99v-19.02h4.99v19.02Z"/>
    <path class="cls-1" d="m137.7,32.5v9h-5.17V15.9h8.72c2.53,0,4.55.79,6.06,2.36s2.26,3.61,2.26,6.12-.74,4.49-2.23,5.94-3.55,2.18-6.19,2.18h-3.45Zm0-4.31h3.55c.98,0,1.75-.32,2.29-.97s.81-1.58.81-2.81-.28-2.29-.83-3.05-1.29-1.14-2.21-1.15h-3.6v7.98Z"/>
    <path class="cls-1" d="m161.61,41.5c-.14-.29-.28-.79-.42-1.48-.89,1.22-2.1,1.83-3.62,1.83s-2.92-.53-3.96-1.58-1.57-2.42-1.57-4.1c0-1.99.64-3.53,1.91-4.62s3.1-1.65,5.49-1.67h1.51v-1.53c0-.86-.15-1.46-.44-1.81s-.72-.53-1.28-.53c-1.24,0-1.86.73-1.86,2.18h-4.97c0-1.76.66-3.21,1.98-4.35s2.99-1.71,5-1.71,3.7.54,4.84,1.63,1.71,2.63,1.71,4.65v8.95c.02,1.64.26,2.92.7,3.85v.3h-5.01Zm-2.94-3.55c.55,0,1.02-.11,1.41-.33s.67-.49.86-.79v-3.96h-1.2c-.84,0-1.51.27-2,.81s-.73,1.26-.73,2.16c0,1.41.55,2.11,1.65,2.11Z"/>
    <path class="cls-1" d="m175.62,33.22l2.53-10.74h5.31l-6.26,21.87c-.94,3.22-2.7,4.83-5.29,4.83-.6,0-1.28-.11-2.04-.33v-3.88l.58.02c.77,0,1.36-.15,1.75-.45s.69-.82.89-1.56l.39-1.28-5.48-19.21h5.34l2.29,10.74Z"/>
    <path class="cls-1" d="m211.47,32.97c-.13,2.92-.95,5.13-2.46,6.63s-3.64,2.25-6.4,2.25c-2.89,0-5.11-.95-6.65-2.86s-2.31-4.62-2.31-8.15v-4.31c0-3.52.8-6.23,2.39-8.13s3.81-2.86,6.64-2.86,4.91.78,6.35,2.34,2.27,3.8,2.47,6.71h-5.19c-.05-1.8-.33-3.05-.83-3.74s-1.44-1.03-2.8-1.03-2.36.48-2.94,1.45-.88,2.56-.91,4.77v4.83c0,2.54.28,4.29.85,5.24s1.54,1.42,2.93,1.42,2.3-.33,2.81-.99.81-1.86.88-3.59h5.17Z"/>
  </g>
  <g>
    <path class="cls-2" d="m231.16,24.15c1.08-1.35,2.4-2.02,3.97-2.02,1.73,0,3.05.61,3.96,1.83s1.36,3.04,1.37,5.45v12.09h-4.99v-12.04c0-1.11-.17-1.92-.52-2.42s-.91-.75-1.68-.75c-.9,0-1.61.42-2.11,1.25v13.96h-4.97V14.5h4.97v9.65Z"/>
    <path class="cls-2" d="m251.71,41.85c-2.55,0-4.55-.76-5.98-2.29s-2.14-3.7-2.14-6.54v-1.51c0-3,.66-5.31,1.97-6.94s3.19-2.44,5.64-2.44,4.19.76,5.4,2.29c1.21,1.53,1.82,3.79,1.85,6.78v2.44h-9.9c.07,1.41.38,2.45.93,3.1s1.4.98,2.55.98c1.66,0,3.05-.57,4.17-1.71l1.95,3.01c-.61.84-1.49,1.53-2.65,2.05s-2.42.78-3.78.78Zm-3.13-11.67h4.97v-.46c-.02-1.14-.21-2-.56-2.58s-.96-.88-1.83-.88-1.5.31-1.89.93-.62,1.62-.69,2.99Z"/>
    <path class="cls-2" d="m268.13,37.72c1.44,0,2.17-.94,2.2-2.81h4.68c-.02,2.07-.66,3.75-1.92,5.03s-2.87,1.92-4.85,1.92c-2.45,0-4.32-.76-5.61-2.29s-1.95-3.77-1.97-6.73v-1.51c0-2.99.64-5.27,1.91-6.84s3.15-2.36,5.63-2.36c2.1,0,3.75.65,4.96,1.94s1.82,3.13,1.85,5.51h-4.68c-.01-1.07-.19-1.89-.53-2.46s-.9-.86-1.69-.86c-.87,0-1.49.31-1.86.92s-.57,1.81-.6,3.58v1.93c0,1.55.08,2.63.23,3.24s.4,1.07.76,1.35.85.43,1.49.43Z"/>
    <path class="cls-2" d="m284.13,34.17l-1.34,1.49v5.84h-4.97V14.5h4.97v14.59l.62-.91,3.45-5.7h5.92l-5.52,7.84,6.05,11.18h-5.7l-3.48-7.33Z"/>
    <path class="cls-2" d="m294.46,31.37c0-2.88.68-5.14,2.04-6.79s3.24-2.46,5.64-2.46,4.32.82,5.68,2.46,2.04,3.91,2.04,6.82v1.21c0,2.89-.67,5.16-2.02,6.79s-3.23,2.44-5.66,2.44-4.33-.82-5.69-2.45-2.03-3.91-2.03-6.81v-1.21Zm4.99,1.25c0,3.4.91,5.1,2.72,5.1,1.68,0,2.58-1.42,2.71-4.25l.02-2.09c0-1.73-.24-3.02-.72-3.86s-1.16-1.26-2.04-1.26-1.5.42-1.98,1.26-.71,2.12-.71,3.86v1.25Z"/>
    <path class="cls-2" d="m322.31,39.76c-1.03,1.39-2.41,2.09-4.15,2.09s-3.07-.6-3.97-1.8-1.35-2.95-1.35-5.25v-12.32h4.97v12.45c.02,1.85.64,2.78,1.85,2.78,1.14,0,1.96-.49,2.46-1.48v-13.75h5.01v19.02h-4.68l-.14-1.74Z"/>
    <path class="cls-2" d="m336.46,17.8v4.68h2.55v3.73h-2.55v9.45c0,.75.1,1.27.31,1.55.21.28.6.42,1.19.42.48,0,.87-.04,1.18-.12l-.04,3.87c-.84.32-1.76.47-2.74.47-3.21,0-4.83-1.84-4.87-5.53v-10.12h-2.2v-3.73h2.2v-4.68h4.97Z"/>
  </g>
  <polygon class="cls-2" points="43.67 61.24 73.08 61.24 39.41 82.52 43.67 61.24"/>
</svg>